<svg version="1" xmlns="http://www.w3.org/2000/svg" width="1109.333" height="1109.333" viewBox="0 0 832.000000 832.000000"><path d="M392.8.5c-.1.1-3.9.6-8.3.9-4.4.4-9.1.9-10.5 1.2-2.4.4-3.7.6-12.4 1.9C345.9 6.7 310.9 17 291.5 25c-4.2 1.7-32 15.4-32.5 15.9-.3.3-2.1 1.5-4 2.5-8.1 4.5-35.2 23.3-37 25.6-.3.4-3.3 3-6.7 5.9-7.6 6.3-26.9 25.4-33.9 33.6-7 8.2-15.1 18.8-19.9 26-2.1 3.3-4.2 6.1-4.7 6.3-.4.2-.8.7-.8 1.2s-2 4.3-4.5 8.5c-6.3 10.6-13.5 25.2-18 36.5-2.1 5.2-4.3 10.8-5 12.5-.7 1.6-1.9 5-2.6 7.5-.7 2.5-1.3 4.7-1.4 5-.1.3-1 3.2-2 6.5s-2 6.4-2.1 7c-.1.5-.7 3-1.4 5.5s-1.4 5.4-1.6 6.5c-.2 1.1-.6 3-.9 4.2-1.2 5.5-1.6 7.1-2.6 12.8-.5 3.3-1.2 7.1-1.5 8.5-1.9 9.6-2.5 37.7-1.1 48.5 1.4 10.8 4.5 23.1 7.6 30.1 1.1 2.3 1.7 4.5 1.3 4.8-.3.3.1.6.8.6.7 0 1.1.3.7.6-.8.8 5.8 13.4 11.4 21.6 13.7 20.4 36.4 44.1 56.4 59.2 7.3 5.5 25 17.6 25.8 17.6.2 0 4.5 2.5 9.5 5.5s11.6 6.8 14.6 8.5c3.1 1.6 8.2 4.4 11.4 6.2 3.1 1.7 8.6 4.7 12.1 6.5 3.6 1.8 7 3.8 7.8 4.4.7.6 1.3.8 1.3.4s.6-.2 1.4.4c2.1 1.8 24.8 13.1 26.2 13.1.7 0 1.4.3 1.6.7.2.5 2.3 1.8 4.8 3 13.3 6.4 44.1 21 54 25.5 10.9 5 59.2 29.4 63 31.8.8.5 5.3 3.3 10 6.1 4.6 2.8 9 5.8 9.8 6.5.7.8 1.7 1.4 2.1 1.4.4 0 1.7.8 2.9 1.7 1.1 1 4 3.4 6.3 5.3 18.4 14.8 27.8 29.8 28.4 45 .5 15-6.2 26.5-23.2 39.7-2.3 1.8-4.5 3.3-4.9 3.3-.4 0-2.1 1-3.8 2.3-1.7 1.2-4.9 3.1-7.1 4.2-2.2 1.1-4.2 2.3-4.5 2.6-.5.7-7.4 3.9-24.5 11.4-9.2 4-38.5 12.6-51.5 15-1.4.3-3.6.7-5 1-1.4.3-4.2.7-6.3 1-2.1.3-4.8.7-6 1-13.7 2.9-54 3.5-68.9 1-1.6-.3-4.3-.7-6-1-11.2-1.9-15.8-2.7-19.8-3.5-2.5-.5-5.6-1.2-7-1.4-5.8-1-24.6-6-28.5-7.7-1.6-.6-3.6-1.3-4.3-1.5-5.8-1.2-23.1-15.5-29.7-24.5-7.6-10.6-17-30.8-24.5-52.9-2.3-6.9-4.5-13.2-4.8-14-.3-.8-.6-2-.7-2.5-.2-.6-1.5-3.7-3-7-1.6-3.3-2.9-6.3-2.9-6.7-.1-.4-.7-1.3-1.3-1.9-.7-.7-1.3-1.8-1.3-2.4 0-2.2-4-4.8-7.3-4.8-1.7 0-5 .8-7.2 1.8-4.2 1.9-20.5 17.9-20.5 20.2 0 .7-.4 1.3-.8 1.3s-2.6 2.8-4.7 6.2c-12.7 19.9-21.8 42.3-24.1 59.3-.3 2.7-.8 5.9-1.1 7-.2 1.1-.6 9.9-.8 19.5-.4 15.9.6 27.5 3 37.7.3 1.3.7 3.1.9 4 2.4 10.1 11.3 28.8 16.3 34.1.7.7 1.3 1.7 1.3 2.1 0 .6 7.5 8.3 14.6 14.9 1.6 1.6 8.2 6.3 14.5 10.4 15.6 10.4 27.2 16.6 45.9 24.5 1.9.8 4.4 1.9 5.5 2.4 2.6 1 16.5 5.9 18.5 6.4.8.2 5.8 1.5 11 2.8 5.2 1.4 10.9 2.7 12.5 3 1.7.3 6.5 1.3 10.8 2.1 12.7 2.6 20 3.1 42.2 3.1 18.4-.1 33.1-.8 40.7-2 1.2-.2 4.6-.6 7.3-.9 2.8-.4 6.1-.8 7.5-1.1 1.4-.2 4.1-.7 6-.9 1.9-.3 4.6-.8 6-1 1.4-.3 4.1-.7 6-1 1.9-.3 4.9-.9 6.5-1.4 1.7-.4 3.7-.8 4.5-.7.8.1 2.2-.2 3-.6.9-.4 3.4-1 5.5-1.3 2.2-.4 10.1-2.4 17.5-4.6 7.4-2.2 14-4.2 14.5-4.3.6-.1 1.5-.5 2-.8.6-.4 3.5-1.4 6.5-2.4 12-3.9 33.6-14 51.5-24 5.7-3.2 23.7-14.6 24.5-15.5.3-.3 3.7-2.8 7.5-5.5 3.9-2.7 7.5-5.4 8.2-6 .6-.5 3.3-2.8 5.9-5 6.5-5.5 14-13 19.9-19.9 2.8-3.3 5.5-6.4 6-7 .6-.7 1.5-1.9 2-2.8.6-.8 3.6-5.4 6.7-10 6.9-10.5 20.2-37.9 19.9-41.3 0-.2.8-2.5 1.9-5 1.1-2.5 1.9-4.9 1.9-5.3 0-.4 1.2-5.4 2.5-11.2 1.4-5.8 2.8-12.8 3.2-15.5.3-2.8.8-5.3 1-5.6.7-1.2 1.8-18.9 1.7-29.4 0-10.1-.8-20.7-1.8-24.5-.2-.8-.6-3.1-.9-5-.3-1.9-1.3-6-2.1-9-.9-3-1.7-6.2-1.9-7-1.8-7.5-14.4-32.8-16.8-33.8-.4-.2-.8-.8-.8-1.3 0-1-10.5-15.1-16-21.4-5.2-6.1-22-22.6-26.9-26.5-2.4-1.9-5.2-4.2-6.1-5-4.2-3.8-22.9-15.8-36.5-23.5-14.2-7.9-20.3-11.2-23.2-12.4-1.8-.7-3.3-1.7-3.3-2.2 0-.5-.4-.9-1-.9-.9 0-33.7-15.6-42.2-20.1-2.1-1.1-3.8-1.7-3.8-1.2 0 .4-.4.3-.8-.2-.4-.6-1.8-1.5-3.2-2.2-5.7-2.6-16-7.2-23-10.3-4.1-1.8-9.4-4.1-11.7-5.1-2.4-1.1-11.8-5.3-21-9.3-31.9-14-65.7-30-68.8-32.6-.7-.6-1.4-.8-1.7-.5-.3.3-1.1-.1-1.8-1-.7-.8-1.6-1.5-2.1-1.5-.9 0-19.1-12.2-21.4-14.3-.7-.6-2.8-2.3-4.5-3.7-5-3.7-14.2-13-17.5-17.5-1.7-2.2-3.2-4.2-3.5-4.5-1.7-1.6-6.5-14.5-7.5-20.2-1.8-10-1-18.1 2.9-32.8 1-3.7 7.3-17.3 10.4-22.5 3.2-5.4 9.4-13.5 10.3-13.5.5 0 .9-.5.9-1.1 0-1.5 13.7-14.9 22-21.6 3.6-2.9 7.4-6.1 8.6-7 1.1-1 2.8-2.3 3.7-2.8.8-.6 5.3-3.5 9.9-6.6 11.2-7.6 15.2-9.8 29.8-16.9 17-8.3 20.4-9.8 32.8-13.9 41.4-13.8 72.9-16.9 102.2-10 26.1 6.1 43 14.2 55.9 26.8 8.7 8.5 12.7 16 16.9 32.3 1.5 5.5.7 32.3-1.2 41.3-1.1 5.8-1.5 8.7-2.2 18.3-1.7 24.1-.4 31.8 6.8 38.5 10.7 10 32.3 9.4 43.3-1.1 4.5-4.2 8.3-9 9-11 .3-1.2 1.1-2.2 1.6-2.2s.9-.4.9-.9c0-.6 1.8-4.7 3.9-9.3 3.5-7.5 11.6-30.2 12.6-35.3.2-1.1.4-2 .5-2 .1 0 .3-.8.5-1.7.2-.9 1.1-4.7 2-8.4 1.9-7.7 1.7-6.6 5-23.9 3.6-19.2 3.7-19.7 3.8-36 0-16-.5-25.5-1.3-25.5-.4 0-.6-1-.7-2.3 0-1.8-.6-5.1-1.7-10.2-1.7-7.6-6.3-20.8-10.7-30.3-1.6-3.5-2.9-6.5-2.9-6.8 0-.6-11.2-18.6-12.5-20.1-.5-.6-2.6-3-4.5-5.4-9.9-12-25.7-26-38-33.4-3.6-2.1-6.6-4.3-6.8-4.7-.2-.4-1.2-.8-2.3-.8-1 0-1.9-.5-1.9-1 0-.6-.7-1-1.5-1s-3.4-1-5.7-2.2c-2.4-1.3-4.7-2.4-5.3-2.5-.5-.1-4.8-1.6-9.5-3.2s-9.6-3.2-11-3.5c-1.4-.2-5.9-1.1-10-2-4.1-.8-9.5-1.8-12-2.1-2.5-.3-5.8-.8-7.5-1.1-3.6-.5-49.2-1.4-49.7-.9zM692.5 676.5c-17.2 3.5-27.6 9.2-39.7 22-2.6 2.7-4.8 5.3-4.8 5.7 0 .4-.6 1.3-1.3 2-1.5 1.6-3.5 6-5.2 11.4-1.6 5.4-1.1 17.4 1 25.5 2 7.1 7.9 19.8 10.1 21.5.8.6 1.4 1.5 1.4 2 .1 1.3 4.8 6.3 10.1 10.6 10.5 8.7 21.7 10.5 38.4 6.5 4.3-1.1 11.3-4.2 17.4-7.9 3.4-2.1 6.7-3.8 7.2-3.8s.9-.5.9-1c0-.6.8-1.4 1.9-1.8 4.8-1.8 18.9-15.4 23.6-22.8 5.7-8.7 6.8-12.1 7-22.4.2-7.8-.2-10.8-2.1-16.8-5.3-16-15.2-26-29.2-29.3-9.2-2.2-13.1-2.7-21.1-2.7-5.3.1-12.3.6-15.6 1.3z"/></svg>