<?xml version="1.0" encoding="UTF-8"?>
<svg width="11.151" height="13.475" version="1.1" viewBox="0 0 11.151 13.475" xmlns="http://www.w3.org/2000/svg">
 <path d="m2.586 13.431q-1.107-0.18-1.938-0.804-0.828-0.634-0.598-2.05 0.036-0.223 0.193-0.56 0.17-0.348 0.38-0.587 0.21-0.25 0.399-0.22 0.022 5e-3 0.092 0.13 0.071 0.125 0.123 0.292 0.226 0.707 0.445 1.038 0.232 0.322 0.531 0.44 0.3 0.116 0.942 0.22 0.653 0.106 1.438-0.039 0.786-0.156 1.35-0.474 0.573-0.316 0.63-0.67 0.057-0.343-0.223-0.65t-0.75-0.565q-0.469-0.258-1.293-0.642-1.267-0.59-2.064-1.074-0.796-0.48-1.312-1.224-0.504-0.74-0.341-1.738 0.244-1.505 1.136-2.52 0.904-1.022 2.119-1.438 1.217-0.426 2.38-0.239 0.73 0.12 1.249 0.566 0.52 0.437 0.736 1.063 0.227 0.628 0.12 1.292-0.137 0.842-0.384 1.381-0.236 0.541-0.69 0.468-0.31-0.05-0.357-0.32-0.034-0.278 0.049-0.787 0.118-0.73-0.243-1.097-0.35-0.363-1.125-0.49-0.553-0.089-1.38 0.174-0.816 0.265-1.459 0.797-0.641 0.521-0.746 1.163-0.068 0.42 0.217 0.763 0.299 0.332 0.78 0.592 0.481 0.25 1.362 0.63 1.264 0.547 2.031 1 0.78 0.446 1.272 1.196 0.491 0.75 0.319 1.813-0.214 1.318-1.21 2.065-0.997 0.747-2.196 0.995-1.198 0.237-1.984 0.11z" fill="#3f83f8"/>
 <path d="m10.713 12.415c-0.55 0.417-0.978 0.421-1.288 0.013a1.127 1.127 0 0 1-0.228-0.626c-0.011-0.235 0.115-0.45 0.378-0.65 0.132-0.1 0.292-0.168 0.482-0.2 0.193-0.03 0.373-0.025 0.54 0.014 0.172 0.043 0.294 0.113 0.368 0.21a0.87 0.87 0 0 1 0.184 0.597c-0.014 0.218-0.16 0.432-0.436 0.643z" fill="#3f83f8"/>
</svg>
